<?xml version="1.0"?>
<svg xmlns="http://www.w3.org/2000/svg" fill="white" viewBox="0 0 64 64" width="512" height="512"><g id="outline"><rect x="17" y="20" width="8" height="2"/><path d="M38,29H34V17a.984.984,0,0,0-.03-.242L33.28,14H36a1,1,0,0,0,1-1V9a1,1,0,0,0-1-1H33V5a3,3,0,0,0-3-3H12A3,3,0,0,0,9,5V8H6A1,1,0,0,0,5,9v4a1,1,0,0,0,1,1H8.72l-.69,2.758A.984.984,0,0,0,8,17V29H4a1,1,0,0,0-1,1v5a1,1,0,0,0,1,1h6.753l7.6,4-7.819,4.115a1,1,0,0,0-.068,1.731L18.627,51,10.71,56H4a1,1,0,0,0-1,1v4a1,1,0,0,0,1,1H38a1,1,0,0,0,1-1V57a1,1,0,0,0-1-1H30.29l-7.917-5,8.161-5.154a1,1,0,0,0-.068-1.731L22.647,40l7.6-4H38a1,1,0,0,0,1-1V30A1,1,0,0,0,38,29ZM14,29V27H28v2ZM12,18a1,1,0,0,1,1,1v1H10V18Zm-2,4h4a1,1,0,0,0,1-1V19a3,3,0,0,0-3-3H10.281l.5-2H31.219l.5,2H30a3,3,0,0,0-3,3v2a1,1,0,0,0,1,1h4v3H10Zm22-2H29V19a1,1,0,0,1,1-1h2Zm-2,7h2v2H30Zm5-17v2H33V10ZM11,5a1,1,0,0,1,1-1H30a1,1,0,0,1,1,1v7H11ZM7,10H9v2H7Zm3,17h2v2H10ZM37,60H5V58H37ZM26.543,56H14.457L20.5,52.183ZM28,45.079l-7.5,4.738L13,45.079l7.5-3.949ZM20.5,38.87,15.047,36H25.953ZM37,34H5V31H37Z"/><path d="M41,30v6h7V46h2V56H47v6H58V46h2V30Zm2,2h9a1,1,0,0,1,0,2H43ZM56,60H49V58h7Zm0-4H52V46h4Zm2-12H50V42h8Zm0-4H50V36h2a3,3,0,0,0,3-3,2.966,2.966,0,0,0-.184-1H58Z"/><path d="M48,18H44v2h4v8H60V14H48Zm10,8H50V20h8ZM50,16h8v2H50Z"/></g></svg>
